<svg width="380" height="22" viewBox="0 0 380 22" fill="none" xmlns="http://www.w3.org/2000/svg">
<path d="M298.152 11.6548H296.562C296.27 11.6548 296.033 11.8918 296.033 12.1845V18.5417C296.033 18.8344 296.27 19.0714 296.562 19.0714H298.152C298.444 19.0714 298.682 18.8344 298.682 18.5417V12.1845C298.682 11.8918 298.444 11.6548 298.152 11.6548ZM293.914 14.8333H292.324C292.032 14.8333 291.795 15.0704 291.795 15.3631V18.5417C291.795 18.8344 292.032 19.0714 292.324 19.0714H293.914C294.206 19.0714 294.443 18.8344 294.443 18.5417V15.3631C294.443 15.0704 294.206 14.8333 293.914 14.8333ZM302.39 8.47619H300.801C300.508 8.47619 300.271 8.71326 300.271 9.00595V18.5417C300.271 18.8344 300.508 19.0714 300.801 19.0714H302.39C302.683 19.0714 302.92 18.8344 302.92 18.5417V9.00595C302.92 8.71326 302.683 8.47619 302.39 8.47619ZM306.628 5.29762H305.039C304.746 5.29762 304.509 5.53469 304.509 5.82738V18.5417C304.509 18.8344 304.746 19.0714 305.039 19.0714H306.628C306.921 19.0714 307.158 18.8344 307.158 18.5417V5.82738C307.158 5.53469 306.921 5.29762 306.628 5.29762ZM310.866 2.11905H309.277C308.984 2.11905 308.747 2.35612 308.747 2.64881V18.5417C308.747 18.8344 308.984 19.0714 309.277 19.0714H310.866C311.159 19.0714 311.396 18.8344 311.396 18.5417V2.64881C311.396 2.35612 311.159 2.11905 310.866 2.11905Z" fill="black"/>
<g clip-path="url(#clip0_1_131)">
<path d="M376.821 7.41669V9.53573H377.881V11.6548H376.821V13.7738H360.929V7.41669H376.821ZM377.351 5.29764H360.399C359.521 5.29764 358.81 6.00917 358.81 6.88692V14.3036C358.81 15.1813 359.521 15.8929 360.399 15.8929H377.351C378.229 15.8929 378.94 15.1813 378.94 14.3036V13.7738H379.205C379.644 13.7738 380 13.4181 380 12.9792V8.21133C380 7.77245 379.644 7.41669 379.205 7.41669H378.94V6.88692C378.94 6.00917 378.229 5.29764 377.351 5.29764ZM372.583 8.47621H361.988V12.7143H372.583V8.47621Z" fill="black"/>
</g>
<g clip-path="url(#clip1_1_131)">
<path d="M345.927 7.24716C340.061 1.82141 330.937 1.82339 325.073 7.24716C324.853 7.45112 324.849 7.79646 325.062 8.00803L326.195 9.13278C326.399 9.33475 326.726 9.33906 326.937 9.14536C331.769 4.7192 339.231 4.71821 344.063 9.14536C344.275 9.33906 344.602 9.33442 344.805 9.13278L345.939 8.00803C346.152 7.79646 346.147 7.45112 345.927 7.24716ZM335.5 13.7738C334.33 13.7738 333.381 14.7224 333.381 15.8929C333.381 17.0633 334.33 18.0119 335.5 18.0119C336.67 18.0119 337.619 17.0633 337.619 15.8929C337.619 14.7224 336.67 13.7738 335.5 13.7738ZM342.21 11.0062C338.394 7.63124 332.602 7.63488 328.79 11.0062C328.561 11.2081 328.554 11.5588 328.771 11.7727L329.911 12.8981C330.11 13.0941 330.43 13.1073 330.641 12.9246C333.421 10.5218 337.586 10.527 340.359 12.9246C340.57 13.1073 340.89 13.0944 341.089 12.8981L342.229 11.7727C342.446 11.5588 342.439 11.2078 342.21 11.0062Z" fill="black"/>
</g>
<path d="M3.33268 12.8856C3.47821 13.6521 3.92451 14.0353 4.67157 14.0353C5.18579 14.0353 5.54962 13.8073 5.76306 13.3513C5.97651 12.8953 6.08323 12.1531 6.08323 11.1247C5.86979 11.4254 5.57872 11.6583 5.21004 11.8232C4.84136 11.9882 4.42902 12.0706 3.97302 12.0706C3.35209 12.0706 2.79906 11.9445 2.31396 11.6923C1.82885 11.4303 1.44562 11.0471 1.16426 10.5426C0.892596 10.0283 0.756766 9.4074 0.756766 8.67974C0.756766 7.96179 0.902298 7.336 1.19336 6.80238C1.49413 6.26877 1.91617 5.85643 2.45949 5.56536C3.01251 5.2743 3.66255 5.12877 4.40962 5.12877C5.84553 5.12877 6.8497 5.57506 7.42213 6.46766C7.99455 7.36026 8.28077 8.67489 8.28077 10.4116C8.28077 11.6729 8.16434 12.7158 7.93149 13.5405C7.70834 14.3555 7.32511 14.9764 6.78179 15.4033C6.24817 15.8302 5.51566 16.0437 4.58426 16.0437C3.84689 16.0437 3.21626 15.8981 2.69234 15.6071C2.17813 15.316 1.78034 14.9328 1.49898 14.4574C1.22732 13.982 1.07209 13.458 1.03328 12.8856H3.33268ZM4.5406 10.106C4.94809 10.106 5.27311 9.98468 5.51566 9.74213C5.75821 9.48987 5.87949 9.1503 5.87949 8.7234C5.87949 8.2577 5.75336 7.89872 5.50111 7.64647C5.24885 7.39421 4.90928 7.26808 4.48238 7.26808C4.05549 7.26808 3.71591 7.39906 3.46366 7.66102C3.22111 7.91328 3.09983 8.26255 3.09983 8.70885C3.09983 9.12604 3.22111 9.46562 3.46366 9.72757C3.71591 9.97983 4.07489 10.106 4.5406 10.106ZM11.0202 16.1164C10.5836 16.1164 10.2246 15.9903 9.94324 15.738C9.67158 15.4761 9.53575 15.1559 9.53575 14.7775C9.53575 14.3894 9.67158 14.0644 9.94324 13.8025C10.2246 13.5405 10.5836 13.4095 11.0202 13.4095C11.4471 13.4095 11.7963 13.5405 12.068 13.8025C12.3494 14.0644 12.49 14.3894 12.49 14.7775C12.49 15.1559 12.3494 15.4761 12.068 15.738C11.7963 15.9903 11.4471 16.1164 11.0202 16.1164ZM11.0202 10.1933C10.5836 10.1933 10.2246 10.0671 9.94324 9.81489C9.67158 9.55294 9.53575 9.23277 9.53575 8.85438C9.53575 8.4663 9.67158 8.14128 9.94324 7.87932C10.2246 7.61736 10.5836 7.48638 11.0202 7.48638C11.4471 7.48638 11.7963 7.61736 12.068 7.87932C12.3494 8.14128 12.49 8.4663 12.49 8.85438C12.49 9.23277 12.3494 9.55294 12.068 9.81489C11.7963 10.0671 11.4471 10.1933 11.0202 10.1933ZM13.8316 8.37413C13.8704 7.336 14.2099 6.53557 14.8503 5.97285C15.4906 5.41013 16.359 5.12877 17.4553 5.12877C18.183 5.12877 18.8039 5.25489 19.3181 5.50715C19.842 5.7594 20.235 6.10383 20.4969 6.54043C20.7686 6.97702 20.9044 7.46698 20.9044 8.0103C20.9044 8.65064 20.7443 9.17455 20.4242 9.58204C20.104 9.97983 19.7305 10.2515 19.3036 10.397V10.4552C19.8566 10.6396 20.2932 10.9452 20.6133 11.3721C20.9335 11.799 21.0936 12.3471 21.0936 13.0166C21.0936 13.6181 20.9529 14.1517 20.6716 14.6174C20.3999 15.0734 19.9973 15.4324 19.4636 15.6944C18.9397 15.9563 18.3139 16.0873 17.5863 16.0873C16.422 16.0873 15.4906 15.8011 14.7921 15.2287C14.1032 14.6563 13.7394 13.7928 13.7006 12.6382H16.1164C16.1261 13.0651 16.2474 13.4047 16.4802 13.6569C16.7131 13.8995 17.0527 14.0208 17.499 14.0208C17.8773 14.0208 18.1684 13.914 18.3722 13.7006C18.5856 13.4774 18.6923 13.1864 18.6923 12.8274C18.6923 12.3617 18.5419 12.027 18.2412 11.8232C17.9501 11.6098 17.4796 11.5031 16.8295 11.5031H16.3638V9.48017H16.8295C17.3243 9.48017 17.7221 9.3977 18.0229 9.23277C18.3333 9.05813 18.4886 8.75251 18.4886 8.31592C18.4886 7.96664 18.3916 7.69498 18.1975 7.50094C18.0035 7.30689 17.7367 7.20987 17.3971 7.20987C17.0284 7.20987 16.7519 7.32145 16.5676 7.5446C16.3929 7.76774 16.291 8.04425 16.2619 8.37413H13.8316ZM22.5557 10.5426C22.5557 8.87379 22.8759 7.55915 23.5163 6.59864C24.1663 5.63813 25.2093 5.15787 26.6452 5.15787C28.0811 5.15787 29.1192 5.63813 29.7596 6.59864C30.4096 7.55915 30.7346 8.87379 30.7346 10.5426C30.7346 12.2307 30.4096 13.5551 29.7596 14.5156C29.1192 15.4761 28.0811 15.9563 26.6452 15.9563C25.2093 15.9563 24.1663 15.4761 23.5163 14.5156C22.8759 13.5551 22.5557 12.2307 22.5557 10.5426ZM28.2897 10.5426C28.2897 9.56264 28.183 8.81072 27.9695 8.28681C27.7561 7.75319 27.3146 7.48638 26.6452 7.48638C25.9757 7.48638 25.5343 7.75319 25.3208 8.28681C25.1074 8.81072 25.0007 9.56264 25.0007 10.5426C25.0007 11.2023 25.0395 11.7505 25.1171 12.1871C25.1947 12.614 25.35 12.9632 25.5828 13.2349C25.8254 13.4969 26.1795 13.6278 26.6452 13.6278C27.1109 13.6278 27.4602 13.4969 27.693 13.2349C27.9356 12.9632 28.0957 12.614 28.1733 12.1871C28.2509 11.7505 28.2897 11.2023 28.2897 10.5426ZM43.1668 9.07268C43.1668 9.66451 43.031 10.2078 42.7593 10.7026C42.4877 11.1877 42.0705 11.5807 41.5077 11.8814C40.945 12.1822 40.2465 12.3326 39.4121 12.3326H37.8695V16H35.3809V5.78366H39.4121C40.2271 5.78366 40.9159 5.92434 41.4786 6.2057C42.0414 6.48706 42.4634 6.87515 42.7448 7.36996C43.0261 7.86477 43.1668 8.43234 43.1668 9.07268ZM39.2229 10.3534C39.6983 10.3534 40.0524 10.2418 40.2853 10.0186C40.5181 9.79549 40.6346 9.48017 40.6346 9.07268C40.6346 8.66519 40.5181 8.34987 40.2853 8.12672C40.0524 7.90357 39.6983 7.792 39.2229 7.792H37.8695V10.3534H39.2229ZM56.0322 5.78366V16H53.5436V9.87311L51.2587 16H49.2504L46.951 9.85855V16H44.4624V5.78366H47.4021L50.2691 12.8565L53.107 5.78366H56.0322Z" fill="black"/>
<defs>
<clipPath id="clip0_1_131">
<rect width="21.1905" height="21.1905" fill="white" transform="translate(358.81)"/>
</clipPath>
<clipPath id="clip1_1_131">
<rect width="21.1905" height="21.1905" fill="white" transform="translate(324.905)"/>
</clipPath>
</defs>
</svg>
